<svg xmlns="http://www.w3.org/2000/svg" viewBox="0 0 500 500" fill="#000"><path class="b" d="M400.14 163.42h-42.4c-4.94 0-9.64-2.12-12.91-5.81l-17.2-19.43c-2.56-2.9-6.25-4.55-10.11-4.55s-7.55 1.66-10.11 4.55l-14.75 16.67c-4.83 5.45-11.76 8.58-19.04 8.58H41.53c-6.61 18.84-10.92 38.74-12.64 59.38h219.1c3.85 0 7.54-1.57 10.2-4.35l20.4-21.29c2.55-2.66 6.07-4.16 9.75-4.16h.84c3.87 0 7.55 1.66 10.11 4.56L316.48 217c3.27 3.7 7.97 5.81 12.91 5.81h178.84c-1.72-20.65-6.03-40.55-12.64-59.38h-95.46ZM161.48 347.67c3.85 0 7.54-1.57 10.2-4.35l20.4-21.29c2.55-2.66 6.07-4.16 9.75-4.16h.84c3.87 0 7.55 1.66 10.11 4.55l17.19 19.43c3.27 3.7 7.97 5.81 12.91 5.81h242.36c9.08-18.76 15.73-38.89 19.69-59.98H272.3c-4.94 0-9.64-2.12-12.91-5.81l-17.19-19.43c-2.56-2.9-6.25-4.55-10.11-4.55s-7.55 1.66-10.11 4.55l-14.75 16.67c-4.83 5.45-11.76 8.58-19.05 8.58H32.19c3.96 21.09 10.62 41.22 19.69 59.98h109.59ZM333.42 98.52c3.85 0 7.54-1.57 10.2-4.35l20.4-21.29c2.55-2.66 6.07-4.16 9.75-4.16h.84c3.87 0 7.55 1.66 10.11 4.56l17.19 19.43c3.27 3.7 7.97 5.81 12.91 5.81h46.09C417.02 40.18 347.21 2.44 268.57 2.44S120.12 40.18 76.22 98.52h257.2ZM240.84 407.11h-63.03c-4.94 0-9.64-2.12-12.91-5.81l-17.19-19.43c-2.56-2.9-6.25-4.55-10.11-4.55s-7.55 1.66-10.11 4.55l-14.75 16.67c-4.83 5.45-11.76 8.58-19.05 8.58h-.98c43.91 47.05 106.44 76.5 175.87 76.5s131.95-29.45 175.87-76.5H240.84Z"/></svg>