<svg width="20" height="20" viewBox="0 0 20 20" fill="none" xmlns="http://www.w3.org/2000/svg">
<path d="M10 20C4.477 20 0 15.523 0 10C0 4.477 4.477 0 10 0C15.523 0 20 4.477 20 10C20 15.523 15.523 20 10 20ZM9 14V16H11V14H12C12.4643 14 12.9194 13.8707 13.3143 13.6266C13.7093 13.3825 14.0284 13.0333 14.2361 12.618C14.4437 12.2028 14.5316 11.7379 14.4899 11.2755C14.4482 10.8131 14.2786 10.3714 14 10C14.2786 9.62858 14.4482 9.18692 14.4899 8.72451C14.5316 8.26211 14.4437 7.79723 14.2361 7.38197C14.0284 6.9667 13.7093 6.61746 13.3143 6.37337C12.9194 6.12929 12.4643 6 12 6H11V4H9V6H6V14H9ZM8 11H12C12.1326 11 12.2598 11.0527 12.3536 11.1464C12.4473 11.2402 12.5 11.3674 12.5 11.5C12.5 11.6326 12.4473 11.7598 12.3536 11.8536C12.2598 11.9473 12.1326 12 12 12H8V11ZM8 8H12C12.1326 8 12.2598 8.05268 12.3536 8.14645C12.4473 8.24021 12.5 8.36739 12.5 8.5C12.5 8.63261 12.4473 8.75979 12.3536 8.85355C12.2598 8.94732 12.1326 9 12 9H8V8Z" fill="#2D2D2D"/>
</svg>
