<svg width="24" height="24" fill="none" xmlns="http://www.w3.org/2000/svg"><path fill-rule="evenodd" clip-rule="evenodd" d="M23.877 12c0 6.627-5.342 12-11.931 12C5.356 24 .015 18.627.015 12S5.357 0 11.945 0c6.59 0 11.932 5.373 11.932 12Zm-2.544 3.57c.016.214.033.429.06.642.012.09-.037.138-.085.186-.01.01-.022.021-.032.033-1.058 1.16-2.383 1.852-3.887 2.23-.482.122-.973.183-1.466.233-.097.01-.145-.04-.196-.11l-.083-.114a13.42 13.42 0 0 0-.436-.579c-.09-.111-.083-.15.054-.202a8.573 8.573 0 0 0 2.428-1.366c.277-.224.548-.454.781-.725a.167.167 0 0 1 .059-.098.322.322 0 0 1-.113.044c-.63.4-1.274.77-1.969 1.047a11.08 11.08 0 0 1-2.838.705c-.627.072-1.255.12-1.885.106-1.886-.045-3.699-.4-5.373-1.32-.28-.155-.547-.33-.815-.503l-.244-.158c-.035.009-.025.022-.014.035.005.007.011.014.01.02.915 1.013 2.034 1.723 3.301 2.203.174.066.166.112.063.238-.137.168-.265.345-.393.52l-.114.158c-.046.063-.094.109-.181.1-2.082-.188-3.918-.91-5.374-2.471-.088-.095-.097-.18-.09-.305.05-.88.15-1.754.295-2.622.332-2.006.878-3.945 1.757-5.787.305-.64.717-1.12 1.344-1.46 1.05-.566 2.132-1.008 3.325-1.14.114-.013.357.26.323.37-.016.053-.067.06-.114.067-.013.001-.026.003-.038.006a8.356 8.356 0 0 0-2.115.813A9.283 9.283 0 0 0 5.62 7.564c.082.024.137-.01.188-.042a.574.574 0 0 1 .04-.023c.94-.481 1.901-.908 2.928-1.17A12.187 12.187 0 0 1 10.774 6a14.95 14.95 0 0 1 1.158-.037l.169-.001c1.877-.015 3.652.413 5.334 1.243.16.08.322.157.484.234l.223.106c.046.019.07.014.042-.042-1.05-.985-2.297-1.594-3.68-1.937-.182-.045-.183-.103-.107-.251.077-.15.142-.23.34-.206a7.769 7.769 0 0 1 2.215.628c.478.212.932.473 1.383.74.376.221.623.528.82.908.684 1.321 1.17 2.713 1.527 4.154.329 1.325.549 2.669.65 4.032Zm-13.13-1.372c.332.295.72.448 1.168.356.768-.158 1.28-.849 1.279-1.708a1.79 1.79 0 0 0-.135-.71c-.374-.956-1.437-1.305-2.2-.724-.843.643-.903 2.08-.112 2.786Zm5.239-.454c.533.978 1.743 1.125 2.39.29.485-.628.548-1.45.147-2.14-.271-.465-.668-.745-1.222-.76a1.24 1.24 0 0 0-.86.288c-.679.548-.874 1.554-.455 2.322Z" fill="#2D2D2D" fill-opacity="1"/></svg>