<svg width="24" height="24" fill="none" xmlns="http://www.w3.org/2000/svg"><path fill-rule="evenodd" clip-rule="evenodd" d="M12 0C5.373 0 0 5.373 0 12s5.373 12 12 12 12-5.373 12-12S18.627 0 12 0ZM7.722 12.498c.071-.158.108-.328.108-.5 0-.345-.15-.677-.414-.921a1.478 1.478 0 0 0-1.001-.382c-.375 0-.735.137-1 .382a1.255 1.255 0 0 0-.415.922c0 .171.037.34.108.499.07.158.175.302.306.423.132.121.288.217.46.283a1.52 1.52 0 0 0 1.082 0 1.43 1.43 0 0 0 .46-.283c.13-.121.235-.265.306-.423Zm0-4.695c.071-.158.108-.328.108-.499 0-.346-.15-.677-.414-.922A1.478 1.478 0 0 0 6.415 6c-.375 0-.735.137-1 .382A1.255 1.255 0 0 0 5 7.304c0 .171.037.341.108.5.07.157.175.301.306.422.132.121.288.218.46.283a1.52 1.52 0 0 0 1.082 0c.172-.065.328-.162.46-.283.13-.12.235-.265.306-.423Zm0 9.39c.071-.158.108-.328.108-.499 0-.346-.15-.677-.414-.922a1.478 1.478 0 0 0-1.001-.382c-.375 0-.735.137-1 .382a1.255 1.255 0 0 0-.415.922c0 .171.037.34.108.5.07.157.175.301.306.422.132.121.288.217.46.283a1.52 1.52 0 0 0 1.082 0 1.43 1.43 0 0 0 .46-.283c.13-.12.235-.265.306-.423ZM18.584 6h-8.27a1.48 1.48 0 0 0-1.002.382 1.255 1.255 0 0 0-.414.923c0 .346.149.678.414.923a1.48 1.48 0 0 0 1.001.382h8.271a1.48 1.48 0 0 0 1.001-.382c.266-.245.415-.577.415-.923 0-.346-.15-.678-.415-.923a1.479 1.479 0 0 0-1-.382Zm0 4.695h-8.27c-.187 0-.37.034-.542.1a1.43 1.43 0 0 0-.46.282 1.303 1.303 0 0 0-.307.424 1.217 1.217 0 0 0 0 .998c.071.159.176.302.307.424.132.12.288.217.46.283.171.065.355.099.541.099h8.271c.186 0 .37-.034.542-.1a1.43 1.43 0 0 0 .46-.282c.13-.122.235-.265.306-.424a1.216 1.216 0 0 0 0-.998 1.301 1.301 0 0 0-.307-.424 1.43 1.43 0 0 0-.459-.283 1.52 1.52 0 0 0-.542-.099Zm0 4.695h-8.27c-.187 0-.37.034-.542.1a1.43 1.43 0 0 0-.46.282 1.303 1.303 0 0 0-.307.424 1.217 1.217 0 0 0 0 .998c.071.159.176.303.307.424.132.121.288.217.46.283.171.065.355.099.541.099h8.271c.186 0 .37-.034.542-.1a1.43 1.43 0 0 0 .46-.282c.13-.121.235-.265.306-.423a1.217 1.217 0 0 0 0-1 1.301 1.301 0 0 0-.307-.423 1.43 1.43 0 0 0-.459-.283 1.52 1.52 0 0 0-.542-.099Z" fill="#2D2D2D" fill-opacity="1"/></svg>