<svg width="24" height="24" viewBox="0 0 24 24" fill="currentColor" xmlns="http://www.w3.org/2000/svg">
<path d="M19.5 22.5C19.5 23.3259 20.1741 24 21 24C21.8259 24 22.5 23.3259 22.5 22.5C22.5 21.6741 21 19.5 21 19.5C21 19.5 19.5 21.675 19.5 22.5ZM16.5 9H14.6934C13.9547 8.36719 13.0266 7.91719 12 7.6875V5.46094L10.5 5.29688L9 5.46094V7.6875C7.97344 7.92188 7.04531 8.37187 6.30469 9H0.75C0.333984 9 0 9.33281 0 9.75V14.25C0 14.6672 0.333984 15 0.75 15H5.09906C6.06563 16.7719 8.10938 18 10.5 18C12.8906 18 14.9339 16.7695 15.9 15H16.5C17.3259 15 18 15.6698 18 16.4958C18 17.3217 18.675 18 19.5 18H22.5C23.3259 18 24 17.3259 24 16.5C24 12.3562 20.6437 9 16.5 9ZM3.82641 4.49437L10.5 3.79125L17.175 4.49437C17.6203 4.54125 18 4.1775 18 3.70875V2.29172C18 1.82297 17.6191 1.46016 17.1741 1.50703L12 2.05078V0.75C12 0.333984 11.6672 0 11.25 0H9.75C9.33281 0 9 0.333984 9 0.75V2.05078L3.82641 1.50656C3.38109 1.45969 3 1.82297 3 2.29172V3.70875C3 4.1775 3.38109 4.54125 3.82641 4.49437Z" fill="currentColor"/>
</svg>
