<svg width="82" height="80" fill="none" xmlns="http://www.w3.org/2000/svg"><g clip-path="url(#a)"><path d="M41 0C18.656 0 .542 17.909.542 40s18.114 40 40.46 40c22.345 0 40.46-17.909 40.46-40S63.346 0 41 0Zm-.29 18.31c5.463.026 10.457 3.47 12.579 8.277.726 1.674 1.111 3.393 1.111 5.259v4.756h6.628V61.69H20.973V36.602h6.095c-.055-3.36-.125-7.205 1.067-10.015 2.317-5.06 7.11-8.302 12.574-8.276Zm-.297 7.989c-3.026.063-5.022 2.338-5.314 5.547v4.756h11.27v-4.805c-.139-3.043-2.468-5.414-5.66-5.498a6.363 6.363 0 0 0-.296 0Z" fill="#2D2D2D"/></g><defs><clipPath id="a"><path fill="#fff" transform="translate(.541)" d="M0 0h80.919v80H0z"/></clipPath></defs></svg>