<svg xmlns="http://www.w3.org/2000/svg" width="42" height="42" fill="none"><path fill="#2D2D2D" fill-opacity=".5" d="M21 2.625C10.853 2.625 2.625 10.853 2.625 21S10.853 39.375 21 39.375 39.375 31.147 39.375 21 31.147 2.625 21 2.625Zm0 33.633c-8.425 0-15.258-6.833-15.258-15.258 0-8.425 6.833-15.258 15.258-15.258 8.425 0 15.258 6.833 15.258 15.258 0 8.425-6.833 15.258-15.258 15.258Z"/><path fill="#000" fill-opacity=".15" d="M21 5.742C12.575 5.742 5.742 12.575 5.742 21c0 8.425 6.833 15.258 15.258 15.258 8.425 0 15.258-6.833 15.258-15.258 0-8.425-6.833-15.258-15.258-15.258Zm-9.188 11.526a1.97 1.97 0 0 1 3.938 0 1.97 1.97 0 0 1-3.938 0ZM21 28.424c-3.507 0-6.382-2.76-6.563-6.218a.329.329 0 0 1 .329-.345h1.972c.173 0 .32.132.333.304a3.941 3.941 0 0 0 7.859 0 .331.331 0 0 1 .332-.304h1.972a.329.329 0 0 1 .328.345c-.18 3.457-3.055 6.218-6.562 6.218Zm7.219-9.188a1.969 1.969 0 0 1 0-3.937 1.969 1.969 0 0 1 0 3.937Z"/><path fill="#2D2D2D" fill-opacity=".5" d="M11.813 17.268a1.969 1.969 0 1 0 3.937 0 1.969 1.969 0 0 0-3.938 0Zm15.421 4.593h-1.973a.331.331 0 0 0-.332.304 3.941 3.941 0 0 1-7.858 0 .331.331 0 0 0-.333-.304h-1.972a.33.33 0 0 0-.329.345c.181 3.457 3.056 6.218 6.563 6.218 3.507 0 6.382-2.76 6.563-6.218a.329.329 0 0 0-.329-.345Zm-.984-4.593a1.969 1.969 0 1 0 3.938 0 1.969 1.969 0 0 0-3.938 0Z"/></svg>