<svg width="25" height="24" fill="none" xmlns="http://www.w3.org/2000/svg"><path d="M12.007 0c-6.627 0-12 5.373-12 12s5.373 12 12 12c6.628 0 12-5.373 12-12s-5.372-12-12-12Zm5.79 16.657a.63.63 0 0 0 .16.388c.298.32.624.614.928.928.076.079.108.2.183.343h-5.619c.077-.143.114-.273.198-.36.304-.313.63-.606.934-.92.08-.082.154-.211.154-.32.01-2.062.007-4.125.007-6.188a1.065 1.065 0 0 0-.027-.137c-.054.122-.09.195-.12.27l-2.914 7.403c-.047.12-.063.25-.256.244-.18-.006-.287-.038-.372-.226-1.127-2.478-2.26-4.954-3.4-7.426l-.144-.31c-.014.117-.026.173-.026.229-.003 1.719-.013 3.438.003 5.157.001.19.107.41.229.566.43.556.89 1.088 1.331 1.635.07.087.098.21.164.359H4.94c.055-.138.076-.266.147-.355.4-.5.802-1 1.224-1.481.246-.281.345-.577.342-.956a469.624 469.624 0 0 1-.004-5.883 1.034 1.034 0 0 0-.267-.744A34.408 34.408 0 0 1 5.259 7.52c-.068-.085-.088-.208-.146-.354h.32c1.18 0 2.36.006 3.539-.006.207-.002.293.07.375.252.958 2.118 1.922 4.233 2.891 6.346l.141.301c.049-.111.082-.184.112-.258.857-2.136 1.711-4.272 2.565-6.409.068-.171.147-.233.337-.231 1.133.01 2.266.005 3.399.005h.304c-.074.146-.103.266-.177.342-.313.316-.649.61-.956.933a.623.623 0 0 0-.166.386c-.01 2.61-.01 5.22 0 7.83Z" fill="#2D2D2D" fill-opacity="1"/></svg>