<?xml version="1.0" standalone="no"?><!DOCTYPE svg PUBLIC "-//W3C//DTD SVG 1.1//EN" "http://www.w3.org/Graphics/SVG/1.1/DTD/svg11.dtd"><svg t="1658476538995" class="icon" viewBox="0 0 1249 1024" version="1.1" xmlns="http://www.w3.org/2000/svg" p-id="5078" xmlns:xlink="http://www.w3.org/1999/xlink" width="243.9453125" height="200">
<path d="M1186.816 124.928H62.464C27.648 124.928 0 97.28 0 62.464S27.648 0 62.464 0h1124.352c33.792 0 62.464 27.648 62.464 62.464s-28.672 62.464-62.464 62.464z m0 449.536H62.464C27.648 574.464 0 546.816 0 512s27.648-62.464 62.464-62.464h1124.352c33.792 0 62.464 27.648 62.464 62.464s-28.672 62.464-62.464 62.464z m0 449.536H62.464C27.648 1024 0 996.352 0 961.536s27.648-62.464 62.464-62.464h1124.352c33.792 0 62.464 27.648 62.464 62.464S1220.608 1024 1186.816 1024z" p-id="5079"></path></svg>