<svg width="24" height="24" fill="none" xmlns="http://www.w3.org/2000/svg"><path d="M16.615 10.154c0-1.779-.632-3.3-1.896-4.565-1.265-1.264-2.786-1.897-4.565-1.897-1.779 0-3.3.633-4.565 1.897-1.264 1.264-1.897 2.786-1.897 4.565 0 1.779.633 3.3 1.897 4.565 1.264 1.264 2.786 1.896 4.565 1.896 1.779 0 3.3-.632 4.565-1.896 1.264-1.265 1.896-2.786 1.896-4.565Zm7.385 12c0 .5-.183.933-.548 1.298a1.774 1.774 0 0 1-1.298.548c-.52 0-.952-.183-1.298-.548l-4.947-4.933c-1.722 1.193-3.64 1.789-5.755 1.789a9.977 9.977 0 0 1-3.945-.8 10.152 10.152 0 0 1-3.245-2.164A10.153 10.153 0 0 1 .8 14.099a9.978 9.978 0 0 1-.8-3.945c0-1.375.267-2.69.8-3.945a10.152 10.152 0 0 1 2.164-3.245c.909-.909 1.99-1.63 3.245-2.164a9.977 9.977 0 0 1 3.945-.8c1.375 0 2.69.267 3.945.8a10.153 10.153 0 0 1 3.245 2.164c.908.909 1.63 1.99 2.163 3.245.534 1.255.8 2.57.8 3.945 0 2.115-.595 4.034-1.788 5.755l4.947 4.947c.356.355.534.788.534 1.298Z" fill="#2D2D2D" fill-opacity="1"/></svg>