<svg width="45" height="43" fill="none" xmlns="http://www.w3.org/2000/svg"><circle cx="20" cy="20" r="18.5" stroke="#2D2D2D" stroke-opacity=".8" stroke-width="3"/><g><path d="M13 20a1 1 0 0 1 1 1v6a1 1 0 0 0 1 1h2a1 1 0 0 0 1-1V12.414c0-.89-1.077-1.337-1.707-.707l-6.586 6.586c-.63.63-.184 1.707.707 1.707H13Zm9 7.586c0 .89 1.077 1.337 1.707.707l6.586-6.586c.63-.63.184-1.707-.707-1.707H27a1 1 0 0 1-1-1v-6a1 1 0 0 0-1-1h-2a1 1 0 0 0-1 1v14.586Z" fill="#2D2D2D" fill-opacity=".8" shape-rendering="crispEdges"/></g><defs><filter id="a" x="3.412" y="5.412" width="41.176" height="37.175" filterUnits="userSpaceOnUse" color-interpolation-filters="sRGB"><feFlood flood-opacity="0" result="BackgroundImageFix"/><feColorMatrix in="SourceAlpha" values="0 0 0 0 0 0 0 0 0 0 0 0 0 0 0 0 0 0 127 0" result="hardAlpha"/><feOffset dx="4" dy="4"/><feGaussianBlur stdDeviation="5"/><feComposite in2="hardAlpha" operator="out"/><feColorMatrix values="0 0 0 0 0 0 0 0 0 0 0 0 0 0 0 0 0 0 0.05 0"/><feBlend in2="BackgroundImageFix" result="effect1_dropShadow_268_600"/><feBlend in="SourceGraphic" in2="effect1_dropShadow_268_600" result="shape"/></filter></defs></svg>