<svg width="140" height="140" viewBox="0 0 140 140" fill="none" xmlns="http://www.w3.org/2000/svg">
<path d="M76.6522 43.1936C66.3131 43.1936 56.221 47.1802 48.6765 54.2523C40.4016 62.0112 35.1648 73.4697 32.163 84.2486C30.1969 91.3025 29.212 98.618 29.212 105.937C29.212 108.15 29.3029 110.345 29.4773 112.515C29.6917 115.153 32.2611 116.981 34.8195 116.291C37.0509 115.691 39.3986 115.368 41.8189 115.368C46.7904 115.368 51.4494 116.72 55.4433 119.082C55.5415 119.14 55.6359 119.198 55.7341 119.253C62.2247 123.123 69.8818 125.249 78.0477 124.976C99.3475 124.271 116.748 106.94 117.533 85.6441C118.39 62.3455 99.7618 43.1899 76.6559 43.1899L76.6522 43.1936ZM76.6522 102.79C66.3276 102.79 57.9582 94.4206 57.9582 84.0996C57.9582 73.7786 66.3276 65.4055 76.6522 65.4055C86.9769 65.4055 95.3463 73.7749 95.3463 84.0996C95.3463 94.4242 86.9769 102.79 76.6522 102.79Z" fill="#14AAFF"/>
<path d="M59.8334 30.3143C59.8334 35.7038 57.0096 40.7043 52.3724 43.4518C49.4615 45.178 46.7322 47.2167 44.261 49.539C38.7771 54.6777 34.685 60.9829 31.6542 67.2336C31.0582 68.4656 29.2084 68.0295 29.2084 66.6594V30.3143C29.2084 21.8576 36.066 15 44.5227 15C52.9794 15 59.837 21.8576 59.837 30.3143H59.8334Z" fill="#0075FF"/>
</svg>
