<?xml version="1.0" encoding="utf-8"?>
<!-- Generator: Adobe Illustrator 25.2.1, SVG Export Plug-In . SVG Version: 6.00 Build 0)  -->
<svg version="1.1" id="foxwallet" xmlns="http://www.w3.org/2000/svg" xmlns:xlink="http://www.w3.org/1999/xlink" x="0px" y="0px"
	 viewBox="0 0 1200 1200" style="enable-background:new 0 0 1200 1200;" xml:space="preserve">
<style type="text/css">
	.st0{fill-rule:evenodd;clip-rule:evenodd;fill:#FFFFFF;}
	.st1{fill-rule:evenodd;clip-rule:evenodd;fill:url(#SVGID_1_);}
	.st2{fill-rule:evenodd;clip-rule:evenodd;fill:url(#SVGID_2_);}
	.st3{fill-rule:evenodd;clip-rule:evenodd;fill:url(#SVGID_3_);}
	.st4{fill-rule:evenodd;clip-rule:evenodd;fill:url(#SVGID_4_);}
	.st5{fill-rule:evenodd;clip-rule:evenodd;fill:url(#SVGID_5_);}
	.st6{fill-rule:evenodd;clip-rule:evenodd;fill:#722B00;}
	.st7{fill-rule:evenodd;clip-rule:evenodd;fill:url(#SVGID_6_);}
</style>
<g>
	<path class="st0" d="M485.7,677.4c2.5,0.8,5.1,1.4,7.7,1.7c0,0-10.9,4.1-33.4-3.6c0,0-16.9-6.9-29.5-5.7
		c-14.7,1.3-24.8,20.4-24.8,20.4c2.9-1.6,6-2.8,9.2-3.6c10-2,6.6-0.3,6.6-0.3s-19.2,8.1-20.5,15.2c-0.3,1.8,5.1-3.3,19.3-2.8
		c17.5,0.5,32.7,10.7,38.9,12.4c12.8,3.4,31.1,4.2,48-9c0,0,15.5-9.7,20.3-27.7c1.2-5,2-10.1,2.2-15.2c0.1-4.5-0.4-9-1.4-13.5
		C528.2,645.6,519.1,666.7,485.7,677.4z"/>

		<linearGradient id="SVGID_1_" gradientUnits="userSpaceOnUse" x1="616.2151" y1="746.2643" x2="633.5787" y2="315.3979" gradientTransform="matrix(1 0 0 -1 0 1202)">
		<stop  offset="0" style="stop-color:#DADB48"/>
		<stop  offset="0.6562" style="stop-color:#637621"/>
	</linearGradient>
	<path class="st1" d="M816.1,874.9c33.9-42.5,52.3-95.2,52.3-149.6c0-54.3-18.5-107.1-52.3-149.6l217.1-23.9c0,0,22.6,61.9,28.5,95
		c0.8,4.2,2.1,12.8,2.1,12.8s-33.7,81.8-85.4,126.7C909,846.7,816.1,874.9,816.1,874.9z M302,871.9l-83.2,15.4
		c-26.4-66.9-36.1-139.2-28.1-210.6c7.9-71.5,33.3-139.9,73.7-199.3c1.8-2.6,5.4-7.7,5.4-7.7l91.9,258.9L302,871.9z"/>

		<linearGradient id="SVGID_2_" gradientUnits="userSpaceOnUse" x1="626.248" y1="970.2371" x2="415.1543" y2="970.2371" gradientTransform="matrix(1 0 0 -1 0 1202)">
		<stop  offset="0" style="stop-color:#EC6F01"/>
		<stop  offset="1" style="stop-color:#F4B23D"/>
	</linearGradient>
	<path class="st2" d="M603.1,340.9c0.3-0.4,0.5-0.5,0.8-0.9c2.2-2.4,53.9-57.9-7.7-152c-45.5-69.3-161.2-67.4-208.5-103.5
		c3.5,27.8,30.7,52.9,27.8,90.9c-1.2,12.6-3.5,25-7,37.1c-5.6,21.7-10.8,42.4-3,82.9c6.1,31.6,20.5,54.6,42.8,68.5
		c25.6,15.8,61,19.3,97.3,9.5C569.8,366.8,591.4,354.6,603.1,340.9L603.1,340.9z"/>

		<linearGradient id="SVGID_3_" gradientUnits="userSpaceOnUse" x1="609.1221" y1="934.749" x2="596.6441" y2="1138.5635" gradientTransform="matrix(1 0 0 -1 0 1202)">
		<stop  offset="0" style="stop-color:#F4B33E"/>
		<stop  offset="1" style="stop-color:#FB6F1B"/>
	</linearGradient>
	<path class="st3" d="M680.2,300.3c13.3-22.9,15.8-49.6,7.6-79.2c-11.4-41.4-33-68.6-50.5-90.4c-5.5-6.9-10.6-13.3-14.8-19.4
		c-16.6-24.4-23.8-54-20.2-83.2c-21.1,15.2-61.7,43.8-87.6,74.3c37.5,18,66.8,37.6,89.9,72.9c39.5,60.2,38.8,108.8,31.3,139
		c-2.1,8.3,13.8,15.7,10.9,22.1C660.3,326.8,671.6,314.5,680.2,300.3z"/>

		<linearGradient id="SVGID_4_" gradientUnits="userSpaceOnUse" x1="231.0633" y1="743.5486" x2="973.5292" y2="450.3053" gradientTransform="matrix(1 0 0 -1 0 1202)">
		<stop  offset="0" style="stop-color:#FB6D1A"/>
		<stop  offset="1" style="stop-color:#F3B23E"/>
	</linearGradient>
	<path class="st4" d="M967.7,550.3c-44.1-4.2-133.4-15.1-133.4-15.1c-200.9-11.2-314.9,49.1-400.9,128c-66.4,66-125.6,237-125.6,237
		l-71.9-3.9c0,0,22.9-68.2,49.4-117.9c30.4-56.9,37.2-52.3,30.3-61.7c-32.1-44.1-47.2-78.8-60.1-153c0,0,15.1,11.9,26.5,4.6
		c0,0-25.9-45-29.9-93.6c-7.1-86.1,33.2-203.7,34.2-206.4c-0.4,1.2-2.5,11.3,21.1,26.4c1.7-7.1,3.5-14.1,5.4-20.9
		c8.3-40.6,30.6-129.3,75.1-189.4c0,0,24.9,86.9,87.4,126.3c121.7,76.8,197.9,77.2,197.9,77.2c171.9,19.2,245.3,103.6,245.3,103.6
		C1041.9,524.6,1154,523.4,1154,523.4C1113.7,561.9,967.7,550.3,967.7,550.3z M286.2,268.3c0,0,0-0.1,0-0.1L286.2,268.3z"/>

		<linearGradient id="SVGID_5_" gradientUnits="userSpaceOnUse" x1="397.4348" y1="314.8261" x2="1102.4652" y2="624.7066" gradientTransform="matrix(1 0 0 -1 0 1202)">
		<stop  offset="0" style="stop-color:#F3B63F"/>
		<stop  offset="1" style="stop-color:#FB701C"/>
	</linearGradient>
	<path class="st5" d="M1156.1,523.4c0,0-17.5,96.8-109.2,108.1c0,0-332.6-2.1-356.9,300l-5.6,84.9l-399-116.3
		c0,0,37.6-128.3,119.9-231.3c0,0,139.7-197.3,537.7-145.3c0,0,46.5,9.4,111.7,15.5C1109.7,544.1,1156.1,523.4,1156.1,523.4z"/>
	<path class="st6" d="M929.8,477.3c0,0-86.4-44.9-193.9-40.7c0,0,58.5-45.7,137.5-34.5L929.8,477.3z"/>

		<linearGradient id="SVGID_6_" gradientUnits="userSpaceOnUse" x1="324.74" y1="86.7333" x2="935.1438" y2="467.3266" gradientTransform="matrix(1 0 0 -1 0 1202)">
		<stop  offset="0" style="stop-color:#EC6F00"/>
		<stop  offset="1" style="stop-color:#F4B33E"/>
	</linearGradient>
	<path class="st7" d="M711.3,890.1c0,0,28.1,19.4,72.7,9.1c0,0-72.1,41.8-224.1-15.5c0,0-156.7-70.1-267-54.1
		c-70.9,10.3-133.5,66.6-171.5,109.4c-45.8,51.8-40.1,27.6,75,13.3c27.7-3.4,11.7,4.4,11.7,4.4S54.4,1021.2,44,1078.5
		c-2.6,14.3,40.5-26.1,154.2-22.5c139.6,4.4,261,85.4,310.9,98.8c102.2,27.3,248.8,33.6,383.3-71.9c0,0,124.1-77.9,162.5-221.8
		c10-39.9,15.9-80.8,17.6-121.9c2-53.6-14.3-110-14.3-110S967.6,830.3,711.3,890.1z"/>
</g>
</svg>
